<?xml version="1.0" standalone="no"?>
<!DOCTYPE svg PUBLIC "-//W3C//DTD SVG 1.1//EN" "http://www.w3.org/Graphics/SVG/1.1/DTD/svg11.dtd" >
<svg xmlns="http://www.w3.org/2000/svg">
<metadata>
Created by FontPrep 20130207 at Tue Jun 20 14:31:49 2017
 By Chameleon
 (c) 1993, 1994, 2001, 2002 Adobe Systems Incorporated. All rights reserved.
</metadata>
<defs>
<font id="6ef6409daa8097d55f74072283d9f15c" horiz-adv-x='1024' >
  <font-face 
    font-family="ITCAvantGardeStd-Md"
    font-weight="500"
    font-stretch="normal"
    units-per-em="2048"
    panose-1="2 11 6 2 2 2 2 2 2 4"
    ascent="1516"
    descent="-532"
    x-height="1114"
    cap-height="1516"
    bbox="-260 -549 2363 2013.01"
    underline-thickness="102"
    underline-position="-102"
    unicode-range="U+0020-FB02"
  />
<missing-glyph horiz-adv-x="1024" 
d="M102 1239v-1044l349 522zM164 102h696l-348 523zM573 717l349 -522v1044zM512 809l348 522h-696zM0 0v1434h1024v-1434h-1024z" />
    <glyph glyph-name="f_i" unicode="fi" horiz-adv-x="1040" 
d="M901 1290h-213v226h213v-226zM688 948h-313v-948h-213v948h-152v166h152v76q0 96 29 165q30 69 70 105t105 56q64 20 108 24t106 4v-168q-116 0 -161 -48q-44 -48 -44 -148v-66h526v-1114h-213v948z" />
    <glyph glyph-name="f_l" unicode="fl" horiz-adv-x="1040" 
d="M688 948h-313v-948h-213v948h-152v166h152v76q0 96 29 165q30 69 70 105t105 56q64 20 108 24t106 4v-168q-116 0 -161 -48q-44 -48 -44 -148v-66h313v399h213v-1513h-213v948z" />
    <glyph glyph-name=".notdef" horiz-adv-x="1024" 
d="M102 1239v-1044l349 522zM164 102h696l-348 523zM573 717l349 -522v1044zM512 809l348 522h-696zM0 0v1434h1024v-1434h-1024z" />
    <glyph glyph-name=".null" horiz-adv-x="0" 
 />
    <glyph glyph-name="nonmarkingreturn" horiz-adv-x="681" 
 />
    <glyph glyph-name="space" unicode=" " horiz-adv-x="604" 
 />
    <glyph glyph-name="exclam" unicode="!" horiz-adv-x="614" 
d="M418 266v-266h-221v266h221zM418 1516v-1088h-221v1088h221z" />
    <glyph glyph-name="quotedbl" unicode="&#x22;" horiz-adv-x="829" 
d="M657 909h-168v607h168v-607zM338 909h-166v607h166v-607z" />
    <glyph glyph-name="numbersign" unicode="#" 
d="M692 655l29 209h-219l-29 -209h219zM821 510l-57 -418h-150l58 418h-219l-58 -418h-153l59 418h-250l17 145h254l28 209h-252l19 148h254l53 381h151l-53 -381h219l54 381h151l-53 -381h264l-18 -148h-269l-28 -209h264l-16 -145h-269z" />
    <glyph glyph-name="dollar" unicode="$" 
d="M702 1661v-188q142 -25 222 -124t84 -239h-203q-9 90 -67 142t-132 52t-130 -56t-56 -138t53 -137q33 -38 106 -65q72 -27 142 -50q147 -53 234 -153q87 -99 87 -237t-91 -254t-249 -151v-200h-180v200q-160 19 -256 135t-100 263h221q8 -107 73 -167q64 -60 152 -60
t148 62t61 136q0 74 -25 122q-43 76 -180 128q-41 16 -122 43q-293 88 -293 362q0 157 92 257t229 129v188h180z" />
    <glyph glyph-name="percent" unicode="%" horiz-adv-x="1630" 
d="M1274 1516l-766 -1516h-160l766 1516h160zM1012 326v-2q0 -86 58 -146t146 -59q88 0 144 59q57 60 57 148t-57 146t-144 58q-88 0 -146 -58t-58 -146zM862 326v2q0 148 102 250t252 102q148 0 250 -102t102 -252t-102 -252t-250 -102t-252 100q-102 102 -102 254z
M213 1190v-2q0 -86 57 -144q58 -58 144 -59q86 0 144 59q58 60 58 148t-57 146t-145 58t-144 -58t-57 -148zM61 1190v2q-1 148 101 250t252 102t251 -102t101 -252t-101 -251t-249 -101t-252 101q-103 101 -103 251z" />
    <glyph glyph-name="ampersand" unicode="&#x26;" horiz-adv-x="1517" 
d="M597 176q109 0 174 53t120 162l-316 322q-236 -119 -235 -291q0 -102 74 -174t183 -72zM645 1364h-2q-72 0 -118 -50t-46 -106q0 -108 84 -193q6 -7 30 -31t25 -28q106 60 152 108t47 123q0 75 -48 126t-124 51zM592 -29q-217 0 -351 127q-135 127 -135 302t120 291
q95 92 216 155q-170 180 -172 334t107 259t267 105t263 -104q107 -104 107 -248t-85 -224t-186 -132l263 -267l178 351h225l-260 -494l303 -309l-147 -144l-271 279q-70 -133 -171 -207t-271 -74z" />
    <glyph glyph-name="quotesingle" unicode="'" horiz-adv-x="477" 
d="M322 909h-166v607h166v-607z" />
    <glyph glyph-name="parenleft" unicode="(" horiz-adv-x="923" 
d="M401 500q0 -272 129 -490t316 -317v-242q-221 96 -378 268q-300 329 -300 778q0 450 303 784q158 173 375 263v-239q-182 -101 -314 -317t-131 -488z" />
    <glyph glyph-name="parenright" unicode=")" horiz-adv-x="923" 
d="M524 494q0 272 -130 489t-316 317v244q221 -98 378 -270q300 -329 300 -778q0 -450 -303 -784q-158 -173 -375 -261v238q184 98 315 315q131 218 131 490z" />
    <glyph glyph-name="asterisk" unicode="*" horiz-adv-x="1284" 
d="M717 1516l-37 -287l231 174l70 -129l-258 -109l260 -108l-76 -133l-229 176l39 -285h-150l37 287l-227 -178l-76 133l260 110l-260 107l72 129l233 -172l-39 285h150z" />
    <glyph glyph-name="plus" unicode="+" horiz-adv-x="1228" 
d="M717 1032v-414h411v-206h-411v-412h-205v412h-412v206h412v414h205z" />
    <glyph glyph-name="comma" unicode="," horiz-adv-x="608" 
d="M418 268l-170 -424h-185l130 424h225z" />
    <glyph glyph-name="hyphen" unicode="-" horiz-adv-x="561" 
d="M0 686h561v-211h-561v211z" />
    <glyph glyph-name="period" unicode="." horiz-adv-x="608" 
d="M418 266v-266h-223v266h223z" />
    <glyph glyph-name="slash" unicode="/" horiz-adv-x="1144" 
d="M143 -205l621 1721h240l-621 -1721h-240z" />
    <glyph glyph-name="zero" unicode="0" 
d="M313 1010v-510q0 -132 80 -224t206 -92t210 92t84 224v516q0 105 -57 201q-30 51 -92 83t-144 31q-133 0 -210 -92t-77 -229zM74 506v495q0 154 57 268t147 170q171 107 340 106t335 -126q81 -61 131 -167t51 -242v-504q0 -117 -37 -212q-65 -166 -222 -252
q-125 -69 -281 -70t-328 114q-85 57 -139 167t-54 253z" />
    <glyph glyph-name="one" unicode="1" 
d="M506 0v1311h-287v205h529v-1516h-242z" />
    <glyph glyph-name="two" unicode="2" 
d="M111 0v190q231 219 390 366q159 146 189 176q121 121 146 192q26 71 28 135q0 127 -74 199t-190 73q-116 0 -184 -90t-72 -237h-231q6 221 118 360q74 98 182 139t210 41q219 0 351 -135t130 -334q-2 -125 -57 -227t-181 -225q-283 -279 -426 -418h670v-205h-999z" />
    <glyph glyph-name="three" unicode="3" 
d="M594 1544q182 0 301 -110t119 -277q0 -211 -205 -319q241 -85 288 -309q9 -42 9 -83q0 -202 -150 -338t-368 -137q-123 1 -240 51t-184 144q-86 123 -90 280h243q6 -112 83 -186t198 -75t194 77q72 78 72 195t-88 193t-217 77h-113v182h72q116 0 186 65q70 66 70 152
t-51 146t-143 59q-92 0 -141 -61q-48 -62 -54 -142h-238q4 144 79 242q133 174 368 174z" />
    <glyph glyph-name="four" unicode="4" 
d="M758 471v752l-490 -752h490zM743 0v279h-723v180l719 1057h238v-1045h162v-192h-162v-279h-234z" />
    <glyph glyph-name="five" unicode="5" 
d="M1028 1516v-205h-582l-67 -371q119 80 258 80q231 0 367 -159t137 -361q0 -202 -151 -365q-151 -164 -396 -164q-207 0 -361 124t-184 329h242q25 -106 109 -173t200 -67q115 0 208 94t93 225q0 130 -90 223t-223 93q-166 0 -266 -151l-197 49l135 799h768z" />
    <glyph glyph-name="six" unicode="6" 
d="M291 500v-2q0 -134 89 -224t222 -90t223 92t90 230t-92 227q-92 90 -216 90q-124 1 -220 -85t-96 -238zM672 1036q193 0 339 -141t146 -373t-159 -392q-159 -159 -390 -159q-279 0 -430 189q-125 144 -125 346t135 405l414 605h277l-293 -420q-6 -8 -70 -99q63 39 156 39
z" />
    <glyph glyph-name="seven" unicode="7" 
d="M154 1516h905v-189l-596 -1327h-264l610 1311h-655v205z" />
    <glyph glyph-name="eight" unicode="8" 
d="M334 459v-2q0 -109 78 -191t192 -82t193 82q77 82 77 194t-76 192t-194 81q-118 -1 -194 -81t-76 -193zM391 1133v-3q1 -88 63 -148t150 -60t151 60q62 60 62 150t-62 152q-63 62 -151 62t-150 -62t-63 -151zM156 1151v2q0 159 123 275t325 116t325 -117
q122 -117 122 -276q1 -109 -53 -187t-128 -120q116 -46 180 -150t64 -237q-2 -209 -146 -347t-364 -138t-365 138q-144 138 -147 347q2 131 64 235t182 152q-74 42 -128 120t-54 187z" />
    <glyph glyph-name="nine" unicode="9" 
d="M918 1016v2q0 135 -88 224t-222 89q-133 0 -223 -92t-90 -228q0 -137 91 -227t215 -90q125 0 221 86t96 236zM539 479q-193 1 -339 141t-147 373q0 233 159 392t390 159q279 0 430 -188q123 -142 123 -348t-133 -404l-414 -604h-276l293 420q10 16 34 49q25 33 35 49
q-63 -39 -155 -39z" />
    <glyph glyph-name="colon" unicode=":" horiz-adv-x="608" 
d="M418 266v-266h-223v266h223zM418 1114v-266h-223v266h223z" />
    <glyph glyph-name="semicolon" unicode=";" horiz-adv-x="608" 
d="M420 268l-182 -424h-175l132 424h225zM416 1114v-266h-223v266h223z" />
    <glyph glyph-name="less" unicode="&#x3c;" horiz-adv-x="1228" 
d="M98 618l1032 457v-225l-813 -334l813 -334v-225l-1032 457v204z" />
    <glyph glyph-name="equal" unicode="=" horiz-adv-x="1228" 
d="M100 381h1028v-207h-1028v207zM100 856h1028v-205h-1028v205z" />
    <glyph glyph-name="greater" unicode="&#x3e;" horiz-adv-x="1228" 
d="M98 182l813 336l-813 332v225l1032 -457v-204l-1032 -457v225z" />
    <glyph glyph-name="question" unicode="?" horiz-adv-x="1161" 
d="M657 266v-266h-223v266h223zM580 1321q-100 0 -178 -66q-76 -66 -76 -204h-234v45q12 208 158 328t342 120q197 0 328 -129t131 -305q0 -126 -72 -218t-166 -182q-94 -88 -123 -154t-31 -138h-225q4 110 47 198t154 195q63 63 93 97q79 90 79 186q1 96 -63 162t-164 65z
" />
    <glyph glyph-name="at" unicode="@" horiz-adv-x="1576" 
d="M545 655v-2q0 -100 49 -146t125 -46t132 59t83 139q51 162 51 201q-2 76 -47 124t-109 48q-109 0 -197 -115t-87 -262zM1134 457q88 0 184 124q95 124 95 306q0 242 -171 387t-406 145q-279 -1 -469 -197t-191 -477q0 -234 154 -431q76 -97 205 -157q129 -61 281 -61
t293 52t237 151l47 -104q-115 -117 -279 -171t-287 -55q-188 0 -343 70q-155 71 -251 183q-198 232 -198 542t225 546t569 236q297 0 506 -184t209 -473q0 -242 -142 -402t-294 -159q-66 0 -119 36t-65 113q-96 -145 -252 -145q-106 0 -191 84q-84 84 -84 254t123 331
q123 160 289 160t215 -143l33 115h143l-131 -496l-18 -100q-5 -80 83 -80z" />
    <glyph glyph-name="A" unicode="A" horiz-adv-x="1486" 
d="M999 553l-260 682l-256 -682h516zM418 358l-139 -358h-263l623 1516h219l612 -1516h-262l-143 358h-647z" />
    <glyph glyph-name="B" unicode="B" horiz-adv-x="1226" 
d="M631 213q292 0 295 236q0 154 -133 208q-63 27 -183 27h-223v-471h244zM387 1303v-416h199q102 0 153 24q102 55 103 187q0 127 -108 181q-48 24 -154 24h-193zM145 0v1516h453q209 0 322 -82q154 -94 154 -308t-193 -317q92 -29 152 -82t92 -132t32 -161
q-4 -238 -184 -346q-78 -52 -158 -70t-225 -18h-445z" />
    <glyph glyph-name="C" unicode="C" horiz-adv-x="1660" 
d="M80 760q0 209 98 387t282 288t410 109q146 0 274 -48t215 -124q173 -151 234 -325h-256q-51 100 -172 191t-297 93q-236 0 -392 -168q-156 -167 -154 -405q0 -238 156 -406t392 -168q102 0 190 33t163 105q76 72 114 139h254q-71 -213 -269 -351t-450 -139
q-338 1 -565 231t-227 558z" />
    <glyph glyph-name="D" unicode="D" horiz-adv-x="1482" 
d="M387 1303v-1090h256q258 0 389 147q131 146 131 390t-123 393q-139 160 -395 160h-258zM145 0v1516h469q430 0 623 -246q166 -198 166 -528t-194 -536t-578 -206h-486z" />
    <glyph glyph-name="E" unicode="E" horiz-adv-x="1099" 
d="M145 0v1516h848v-213h-606v-431h598v-210h-598v-449h606v-213h-848z" />
    <glyph glyph-name="F" unicode="F" horiz-adv-x="1009" 
d="M145 0v1516h791v-213h-549v-443h541v-211h-541v-649h-242z" />
    <glyph glyph-name="G" unicode="G" horiz-adv-x="1748" 
d="M872 1331q-225 1 -390 -157t-165 -416t165 -416t380 -158q216 0 360 111t179 272h-653v197h933q0 -190 -67 -340q-100 -217 -306 -335t-434 -118q-336 1 -566 229t-230 563t232 558t567 223q241 0 443 -130t284 -329h-273q-59 86 -139 144q-141 102 -320 102z" />
    <glyph glyph-name="H" unicode="H" horiz-adv-x="1429" 
d="M387 0h-242v1516h242v-639h653v639h242v-1516h-242v664h-653v-664z" />
    <glyph glyph-name="I" unicode="I" horiz-adv-x="534" 
d="M145 0v1516h242v-1516h-242z" />
    <glyph glyph-name="J" unicode="J" horiz-adv-x="1069" 
d="M922 1516v-990q0 -215 -43 -311q-49 -100 -140 -160q-123 -84 -276 -84q-95 0 -227 57q-74 32 -142 116t-82 255h258q0 -8 4 -37q23 -90 80 -134t125 -43t115 35q48 34 68 92t20 161v1043h240z" />
    <glyph glyph-name="K" unicode="K" horiz-adv-x="1290" 
d="M182 0v1516h242v-717l555 717h256l-590 -756l649 -760h-297l-573 698v-698h-242z" />
    <glyph glyph-name="L" unicode="L" horiz-adv-x="937" 
d="M152 0v1516h241v-1303h535v-213h-776z" />
    <glyph glyph-name="M" unicode="M" horiz-adv-x="1890" 
d="M145 0v1516h332l471 -1174l465 1174h330v-1516h-223l6 1278l-502 -1278h-158l-501 1278l6 -1278h-226z" />
    <glyph glyph-name="N" unicode="N" horiz-adv-x="1536" 
d="M1389 1516v-1516h-222l-792 1155l4 -1155h-234v1516h228l786 -1154l-4 1154h234z" />
    <glyph glyph-name="O" unicode="O" horiz-adv-x="1742" 
d="M317 760v-2q0 -240 159 -407q158 -167 398 -167t395 171t155 401t-155 403q-155 172 -397 172q-242 1 -398 -167t-157 -404zM78 748v2q0 350 232 572t565 222t561 -228t229 -558q0 -330 -229 -558q-230 -228 -568 -228t-564 228q-226 229 -226 548z" />
    <glyph glyph-name="P" unicode="P" horiz-adv-x="1187" 
d="M379 1303v-535h209q154 0 235 51q47 27 78 85t31 132q0 154 -111 217q-82 49 -241 50h-201zM137 1516h432q173 0 265 -24q200 -52 284 -241q45 -100 45 -210t-44 -213q-43 -103 -117 -162t-165 -85t-245 -26h-213v-555h-242v1516z" />
    <glyph glyph-name="Q" unicode="Q" horiz-adv-x="1787" 
d="M887 184h2q166 0 270 76q-39 41 -182 160q-166 121 -365 121q-119 0 -221 -43q109 -239 376 -299q63 -15 120 -15zM885 1331h-2q-211 0 -362 -136t-175 -353q-4 -82 10 -148q154 51 281 51q209 0 379 -106q74 -45 291 -229q135 138 135 370t-163 392t-394 159zM890 -29
q-236 0 -422 113q-185 113 -282 290q-96 177 -96 380q0 324 225 557t567 233t571 -230q228 -230 228 -534t-186 -524q103 -70 283 -84v-199q-74 4 -115 9q-186 14 -330 122q-207 -133 -443 -133z" />
    <glyph glyph-name="R" unicode="R" horiz-adv-x="1247" 
d="M137 0v1516h428q313 0 441 -89q94 -61 147 -171t53 -256t-90 -274t-289 -163l357 -563h-256l-416 684h53q227 0 303 66q104 92 105 247q0 78 -35 148q-36 69 -104 113t-248 45h-207v-1303h-242z" />
    <glyph glyph-name="S" unicode="S" horiz-adv-x="1122" 
d="M742 247q75 71 75 176t-85 162q-66 45 -212 97l-21 7q-9 3 -41 13t-67 24t-96 50q-61 35 -99 75q-38 39 -69 107t-31 150q-2 200 142 318t319 118q176 0 309 -91q68 -46 113 -131t51 -196h-237q-31 151 -122 193q-44 20 -122 20t-146 -59t-67 -154q0 -53 17 -89
q30 -63 174 -121t165 -64q151 -63 258 -155t107 -277t-129 -317q-130 -132 -358 -132q-228 -1 -363 129t-137 349h239q12 -160 106 -223q75 -50 163 -50t164 71z" />
    <glyph glyph-name="T" unicode="T" horiz-adv-x="970" 
d="M365 0v1303h-349v213h938v-213h-348v-1303h-241z" />
    <glyph glyph-name="U" unicode="U" horiz-adv-x="1343" 
d="M143 1516h242v-947q0 -111 14 -167t41 -97q76 -121 235 -121t228 117q49 75 55 171q2 34 3 97v947h239v-947q2 -163 -34 -275t-130 -190q-147 -133 -370 -133t-357 131q-102 92 -135 200t-31 267v947z" />
    <glyph glyph-name="V" unicode="V" horiz-adv-x="1427" 
d="M592 0l-567 1516h249l439 -1221l440 1221h250l-572 -1516h-239z" />
    <glyph glyph-name="W" unicode="W" horiz-adv-x="1923" 
d="M438 0l-409 1516h245l299 -1186l297 1186h183l301 -1188l295 1188h245l-417 -1516h-224l-292 1149l-293 -1149h-230z" />
    <glyph glyph-name="X" unicode="X" horiz-adv-x="1368" 
d="M20 0l525 791l-484 725h275l348 -547l346 547h273l-478 -730l523 -786h-275l-397 616l-387 -616h-269z" />
    <glyph glyph-name="Y" unicode="Y" horiz-adv-x="1239" 
d="M500 0v539l-475 977h262l334 -750l333 750h263l-476 -977v-539h-241z" />
    <glyph glyph-name="Z" unicode="Z" horiz-adv-x="1021" 
d="M997 213v-213h-960v156l670 1147h-682v213h954v-189l-649 -1114h667z" />
    <glyph glyph-name="bracketleft" unicode="[" horiz-adv-x="923" 
d="M778 -231v-181h-542v1928h542v-179h-336v-1568h336z" />
    <glyph glyph-name="backslash" unicode="\" horiz-adv-x="1144" 
d="M764 -205l-621 1721h238l623 -1721h-240z" />
    <glyph glyph-name="bracketright" unicode="]" horiz-adv-x="923" 
d="M145 -412v181h336v1568h-336v179h545v-1928h-545z" />
    <glyph glyph-name="asciicircum" unicode="^" horiz-adv-x="1228" 
d="M152 768l354 748h217l354 -748h-233l-232 557l-229 -557h-231z" />
    <glyph glyph-name="underscore" unicode="_" horiz-adv-x="1024" 
d="M1024 -256h-1024v102h1024v-102z" />
    <glyph glyph-name="grave" unicode="`" horiz-adv-x="1136" 
d="M328 1638l491 -272l-63 -131l-498 250z" />
    <glyph glyph-name="a" unicode="a" horiz-adv-x="1415" 
d="M289 555v-2q2 -145 102 -266t287 -121q123 0 213 60t133 161q35 74 39 165t-33 167q-43 101 -135 165t-221 64q-170 0 -278 -115q-107 -116 -107 -278zM1274 1114v-1114h-213v195q-57 -111 -168 -169t-246 -59q-260 0 -416 173q-155 173 -155 422t164 417t407 168
q153 0 261 -69t153 -160v196h213z" />
    <glyph glyph-name="b" unicode="b" horiz-adv-x="1400" 
d="M1114 559q0 164 -110 277q-111 112 -277 112q-167 0 -275 -114t-108 -276q0 -164 106 -278t280 -114t278 118t106 273v2zM139 0v1516h213v-580q74 104 185 156t225 55q229 0 397 -160t168 -425t-165 -430t-408 -165q-139 -1 -247 61t-163 165v-193h-205z" />
    <glyph glyph-name="c" unicode="c" horiz-adv-x="1304" 
d="M672 -33q-264 0 -430 174t-166 419t168 416t418 171q204 0 364 -117t211 -315h-219q-43 111 -137 172t-211 61q-156 2 -273 -108q-109 -109 -109 -281t110 -283q110 -112 256 -110t237 68q90 66 127 157h219q-51 -186 -206 -305t-359 -119z" />
    <glyph glyph-name="d" unicode="d" horiz-adv-x="1411" 
d="M289 559v-2q2 -163 108 -277q105 -114 277 -114t284 117q115 115 109 280q0 166 -112 276q-111 109 -279 109t-278 -113q-109 -114 -109 -276zM1268 1516v-1516h-205v195q-121 -227 -416 -228q-256 0 -414 172q-157 172 -157 424t163 418t404 166q155 0 263 -68t149 -147
v584h213z" />
    <glyph glyph-name="e" unicode="e" horiz-adv-x="1298" 
d="M281 655h737q-8 119 -114 215t-258 96q-153 0 -255 -96q-102 -94 -110 -215zM651 150q223 0 322 188h221q-78 -180 -221 -276t-322 -95q-262 0 -426 177t-164 416t169 413t416 174t415 -164q197 -201 168 -494h-953q8 -159 122 -249t253 -90z" />
    <glyph glyph-name="f" unicode="f" horiz-adv-x="595" 
d="M162 0v948h-152v166h152v76q0 96 29 165q30 69 70 105t105 56q64 20 108 24t106 4v-168q-116 0 -161 -48q-44 -48 -44 -148v-66h205v-166h-205v-948h-213z" />
    <glyph glyph-name="g" unicode="g" horiz-adv-x="1402" 
d="M289 559v-2q0 -163 106 -277q105 -114 275 -114t276 111t111 274q0 154 -90 264q-103 131 -279 131t-288 -108q-111 -109 -111 -279zM1266 1114v-985q0 -412 -335 -561q-124 -55 -265 -55q-221 0 -365 108q-143 109 -188 262h245q37 -76 123 -129q88 -59 193 -59
q150 0 264 104t115 283v115q-53 -100 -155 -165t-247 -65q-251 0 -413 168t-162 422t165 422t410 168q135 -1 245 -63t157 -158v188h213z" />
    <glyph glyph-name="h" unicode="h" horiz-adv-x="1302" 
d="M1167 608v-608h-215v598q0 164 -63 250q-78 98 -235 98t-234 -102q-68 -86 -68 -215v-629h-213v1516h213v-558q46 94 146 142t217 47q452 0 452 -539z" />
    <glyph glyph-name="i" unicode="i" horiz-adv-x="491" 
d="M139 0v1114h213v-1114h-213zM139 1290v226h213v-226h-213z" />
    <glyph glyph-name="j" unicode="j" horiz-adv-x="563" 
d="M399 1114v-1096q0 -96 -10 -160q-27 -174 -148 -237q-93 -47 -247 -47v170q137 0 170 91q22 63 22 177v1102h213zM186 1288v228h213v-228h-213z" />
    <glyph glyph-name="k" unicode="k" horiz-adv-x="1095" 
d="M145 0v1516h215v-842l437 440h258l-496 -489l510 -625h-248l-461 573v-573h-215z" />
    <glyph glyph-name="l" unicode="l" horiz-adv-x="491" 
d="M139 0v1516h213v-1516h-213z" />
    <glyph glyph-name="m" unicode="m" horiz-adv-x="1966" 
d="M1360 946q-266 0 -266 -332v-614h-215v614q4 141 -45 222q-68 108 -211 110t-211 -108q-59 -86 -60 -228v-610h-213v1114h201v-158q39 78 131 134t207 57q182 0 287 -119q16 -16 71 -108q126 227 375 227q188 0 299 -113q72 -74 98 -165t25 -255v-614h-213v606
q0 340 -260 340z" />
    <glyph glyph-name="n" unicode="n" horiz-adv-x="1302" 
d="M952 604q0 346 -293 342q-155 -2 -231 -89t-76 -236v-621h-213v1114h201v-172q43 92 139 150q97 58 231 55q265 -4 362 -156t95 -338v-653h-215v604z" />
    <glyph glyph-name="o" unicode="o" horiz-adv-x="1341" 
d="M289 557v-2q1 -167 111 -277t270 -110t270 112t111 278q0 166 -111 277q-110 111 -270 111t-271 -111q-110 -112 -110 -278zM76 557v2q0 236 163 412t431 176t431 -176t163 -414t-163 -413t-431 -175t-431 175t-163 413z" />
    <glyph glyph-name="p" unicode="p" horiz-adv-x="1409" 
d="M1116 557v2q0 153 -103 271t-277 118t-284 -114t-110 -279t112 -277t278 -112t274 114q110 114 110 277zM139 -406v1520h203v-194q143 227 426 227q182 0 314 -93q132 -94 190 -226t59 -277q1 -242 -157 -413t-404 -171q-156 0 -264 67t-154 150v-590h-213z" />
    <glyph glyph-name="q" unicode="q" horiz-adv-x="1406" 
d="M289 551q-1 -157 109 -271t276 -114t278 113t113 276q6 160 -109 277q-114 116 -286 116t-276 -118t-105 -277v-2zM1268 1114v-1520h-213v594q-45 -86 -153 -154t-267 -67q-246 0 -403 169q-156 169 -156 420t162 421t409 170q154 0 258 -66t158 -157v190h205z" />
    <glyph glyph-name="r" unicode="r" horiz-adv-x="688" 
d="M139 0v1114h201v-164q94 193 332 197v-213h-15q-305 0 -305 -332v-602h-213z" />
    <glyph glyph-name="s" unicode="s" horiz-adv-x="954" 
d="M631 823q0 68 -42 110t-119 41t-120 -43q-43 -43 -41 -103q4 -108 186 -156q182 -49 219 -72q93 -61 113 -98q43 -80 47 -170q2 -160 -112 -262t-285 -103q-214 0 -335 152q-67 84 -70 203h211q6 -92 65 -136t134 -45q75 0 127 48q51 48 51 122t-60 115t-208 88t-221 113
t-75 182q0 154 109 246t251 92t251 -68q55 -35 92 -101t43 -155h-211z" />
    <glyph glyph-name="t" unicode="t" horiz-adv-x="667" 
d="M219 0v948h-201v166h201v402h213v-402h215v-166h-215v-948h-213z" />
    <glyph glyph-name="u" unicode="u" horiz-adv-x="1304" 
d="M1165 1114v-1114h-200v172q-43 -92 -139 -149t-232 -57q-262 1 -367 163q-90 142 -90 332v653h213v-604q0 -344 297 -344q152 2 229 89t76 237v622h213z" />
    <glyph glyph-name="v" unicode="v" horiz-adv-x="1110" 
d="M1087 1114l-425 -1114h-213l-426 1114h223l309 -848l309 848h223z" />
    <glyph glyph-name="w" unicode="w" horiz-adv-x="1656" 
d="M389 0l-373 1114h224l262 -842l237 777h179l241 -777l258 842h221l-370 -1114h-203l-240 780l-233 -780h-203z" />
    <glyph glyph-name="x" unicode="x" horiz-adv-x="1085" 
d="M10 0l402 580l-375 534h258l248 -383l245 383h254l-372 -534l403 -580h-260l-270 414l-273 -414h-260z" />
    <glyph glyph-name="y" unicode="y" horiz-adv-x="1089" 
d="M252 -406l184 439l-426 1081h230l307 -815l311 815h229l-608 -1520h-227z" />
    <glyph glyph-name="z" unicode="z" horiz-adv-x="874" 
d="M29 0v152l565 796h-549v166h784v-168l-546 -780h563v-166h-817z" />
    <glyph glyph-name="braceleft" unicode="{" horiz-adv-x="1015" 
d="M862 1528v-166h-112q-76 0 -100 -42t-23 -138v-406q0 -76 -41 -144t-79 -100q-38 -31 -77 -53q76 -20 136 -91t61 -181v-408q-1 -100 23 -140t100 -40h112v-168h-207q-113 0 -181 69t-66 204v407q0 176 -185 240v221q66 10 125 76t60 176v416q0 136 66 202t181 66h207z
" />
    <glyph glyph-name="bar" unicode="|" horiz-adv-x="1136" 
d="M453 1536h233v-2048h-233v2048z" />
    <glyph glyph-name="braceright" unicode="}" horiz-adv-x="1015" 
d="M154 1362v166h206q115 0 182 -67t66 -201v-416q0 -110 60 -176t125 -76v-221q-184 -63 -185 -240v-407q0 -135 -68 -204t-180 -69h-206v168h112q76 0 100 40t23 140v408q0 141 145 245q28 19 52 31q-82 29 -140 103q-57 74 -57 190v406q0 98 -22 139q-23 41 -101 41h-112
z" />
    <glyph glyph-name="asciitilde" unicode="~" horiz-adv-x="1228" 
d="M848 332q-84 0 -223 72t-230 71q-113 2 -192 -135l-58 192q92 174 256 168q78 0 238 -72t203 -71q43 0 78 23t55 46t49 66l59 -196q-111 -164 -235 -164z" />
    <glyph glyph-name="uni00A0" unicode="&#xa0;" horiz-adv-x="604" 
 />
    <glyph glyph-name="exclamdown" unicode="&#xa1;" horiz-adv-x="614" 
d="M197 -401v1087h221v-1087h-221zM197 848v266h221v-266h-221z" />
    <glyph glyph-name="cent" unicode="&#xa2;" 
d="M709 72h-183v217q-104 23 -184 76t-124 121q-83 129 -84 281q-1 151 97 291t295 181v205h176v-203q140 -31 238 -122t135 -214h-225q-72 131 -229 131q-119 0 -197 -79t-78 -191t75 -195q75 -82 211 -82t214 121h231q-47 -129 -148 -214t-220 -107v-217z" />
    <glyph glyph-name="sterling" unicode="&#xa3;" 
d="M838 831v-174h-312q133 -119 133 -256q0 -98 -86 -208h132q131 0 196 51q84 78 84 182q0 31 -14 88h211q16 -61 16 -119q0 -150 -106 -266q-66 -65 -147 -97t-214 -32h-649v193h192q147 33 148 192q0 135 -154 272h-248v174h134q-68 98 -68 220q0 199 144 346t358 147
t357 -120q144 -120 169 -326h-225q-25 98 -95 166q-71 68 -190 68q-118 0 -196 -83q-78 -82 -82 -205q2 -117 86 -213h426z" />
    <glyph glyph-name="currency" unicode="&#xa4;" 
d="M311 700v-2q0 -118 87 -204t206 -86t205 86t86 206t-85 207q-85 86 -205 86t-207 -86t-87 -207zM604 207q-158 0 -293 96l-164 -162l-110 109l168 168q-96 130 -96 286t98 283l-172 168l112 113l170 -170q129 94 287 94t283 -92l170 166l110 -111l-166 -166
q97 -133 97 -289t-94 -282l165 -166l-110 -113l-162 164q-135 -96 -293 -96z" />
    <glyph glyph-name="yen" unicode="&#xa5;" 
d="M1143 967v-181h-381l-41 -79v-109h422v-180h-422v-418h-238v418h-417v180h417v107l-43 81h-372v181h280l-317 549h256l317 -590l324 590h252l-320 -549h283z" />
    <glyph glyph-name="brokenbar" unicode="&#xa6;" horiz-adv-x="1136" 
d="M453 358h233v-716h-233v716zM453 1382h233v-716h-233v716z" />
    <glyph glyph-name="section" unicode="&#xa7;" horiz-adv-x="1284" 
d="M297 650q0 -122 131 -185l434 -199q49 24 88 78t41 117v2q-2 69 -47 111t-127 79l-391 183q-129 -64 -129 -186zM1184 494q0 -182 -185 -322q121 -112 121 -278t-125 -285t-353 -119t-375 149q-52 52 -87 135t-37 187h211q8 -143 90 -209t206 -66t191 60q67 59 70 150
q-2 68 -51 114t-145 92l-371 172q-58 25 -109 63t-73 71q-60 88 -62 210q0 195 201 322q-78 102 -78 225q0 179 128 279q129 100 317 100t307 -110t123 -277h-211q-29 190 -240 191q-90 0 -153 -48t-64 -137q0 -51 30 -90t56 -55t74 -37l342 -158q174 -77 226 -196
q26 -59 26 -133z" />
    <glyph glyph-name="dieresis" unicode="&#xa8;" horiz-adv-x="1136" 
d="M879 1563v-277h-207v277h207zM463 1563v-277h-207v277h207z" />
    <glyph glyph-name="copyright" unicode="&#xa9;" horiz-adv-x="1638" 
d="M831 1098q-137 0 -215 -96t-78 -248q0 -150 84 -239q83 -89 209 -89q60 0 118 28q114 55 141 220h145q-14 -174 -128 -274t-292 -101q-178 0 -301 124t-123 331t119 339t321 132q164 -1 273 -95t119 -223h-144q-25 102 -94 147q-70 44 -154 44zM821 1432h-2
q-283 0 -473 -198t-190 -478t194 -476t469 -196q276 0 470 196t194 476q-1 280 -191 478t-471 198zM823 1542h2q326 0 551 -230q226 -230 226 -556t-228 -554t-555 -228q-326 0 -554 226q-228 228 -228 555t226 557t560 230z" />
    <glyph glyph-name="ordfeminine" unicode="&#xaa;" horiz-adv-x="837" 
d="M193 1206v-2q0 -72 55 -134t151 -62q129 0 185 110q20 41 20 90t-20 95t-71 78q-50 32 -126 32q-76 1 -135 -59t-59 -148zM741 1524v-629h-137v111q-64 -129 -214 -129t-243 98q-92 98 -92 239q-1 142 95 236t240 94t214 -131v111h137z" />
    <glyph glyph-name="guillemotleft" unicode="&#xab;" horiz-adv-x="798" 
d="M377 573l215 385h164l-215 -385l215 -380h-164zM70 573l215 385h164l-216 -385l216 -380h-164z" />
    <glyph glyph-name="logicalnot" unicode="&#xac;" horiz-adv-x="1228" 
d="M98 834h1032v-584h-206v379h-826v205z" />
    <glyph glyph-name="uni00AD" unicode="&#xad;" horiz-adv-x="561" 
d="M0 686h561v-211h-561v211z" />
    <glyph glyph-name="registered" unicode="&#xae;" horiz-adv-x="1638" 
d="M834 1098h-205v-310h186q33 2 45 2t52 10q116 26 116 150q1 148 -194 148zM483 1204h373q107 0 202 -45q52 -25 84 -76t32 -125q0 -152 -158 -215q70 -23 102 -69t40 -158q7 -110 10 -141t16 -60h-142q-14 23 -22 135t-14 135q-6 21 -26 49q-37 52 -173 52h-178v-371
h-146v889zM821 1432h-2q-281 0 -472 -198t-191 -478t194 -476t469 -196q276 0 470 196t194 475q-1 279 -191 478t-471 199zM823 1542h2q326 0 551 -230q226 -230 226 -556t-228 -554t-555 -228q-326 0 -554 226q-228 228 -228 554t226 557t560 231z" />
    <glyph glyph-name="macron" unicode="&#xaf;" horiz-adv-x="1136" 
d="M934 1505v-170h-733v170h733z" />
    <glyph glyph-name="degree" unicode="&#xb0;" horiz-adv-x="819" 
d="M238 1163v-2q0 -72 50 -123t122 -51t122 52t50 124t-50 123t-122 51t-122 -51t-50 -123zM702 1163v-2q0 -121 -85 -206t-207 -85t-208 85q-85 85 -85 208t85 208t208 85q124 0 208 -85t84 -208z" />
    <glyph glyph-name="plusminus" unicode="&#xb1;" horiz-adv-x="1228" 
d="M98 -92v207h1032v-207h-1032zM512 758v336h205v-336h413v-207h-413v-328h-205v328h-414v207h414z" />
    <glyph glyph-name="twosuperior" unicode="&#xb2;" horiz-adv-x="782" 
d="M707 750v-144h-635v131q218 201 332 309t114 197q0 63 -33 105t-103 41q-70 1 -108 -53q-37 -54 -36 -136h-164q0 129 59 209q89 125 247 125t240 -72t82 -202q0 -78 -30 -138t-109 -134q-78 -75 -246 -238h390z" />
    <glyph glyph-name="threesuperior" unicode="&#xb3;" horiz-adv-x="782" 
d="M388 733q69 0 111 42q42 41 42 103t-41 107t-123 45h-88v125h53q68 0 110 37t42 83t-29 79t-83 34t-82 -32t-32 -82h-168q4 136 96 198t202 62q108 0 185 -69t76 -167q0 -123 -116 -188q78 -29 125 -92t47 -141q-1 -123 -97 -206t-235 -83q-82 0 -157 33
q-164 72 -171 264h172q4 -72 48 -112t113 -40z" />
    <glyph glyph-name="acute" unicode="&#xb4;" horiz-adv-x="1136" 
d="M317 1374l490 275l72 -156l-496 -250z" />
    <glyph glyph-name="mu" unicode="&#xb5;" horiz-adv-x="1230" 
d="M131 -381v1495h213v-586q0 -178 57 -260q74 -102 211 -102t209 110q72 104 72 297v541h213v-1114h-205v186q-89 -209 -281 -209t-276 144v-502h-213z" />
    <glyph glyph-name="paragraph" unicode="&#xb6;" horiz-adv-x="1306" 
d="M451 -231v948q-199 0 -323 100t-124 293q0 121 48 206t129 126q142 72 325 74h631v-160h-113v-1587h-172v1585h-229v-1585h-172z" />
    <glyph glyph-name="periodcentered" unicode="&#xb7;" horiz-adv-x="608" 
d="M418 653v-266h-223v266h223z" />
    <glyph glyph-name="cedilla" unicode="&#xb8;" horiz-adv-x="1136" 
d="M760 -274q0 -74 -50 -130t-143 -57q-29 0 -61 6t-75 46q-44 40 -54 110h110q16 -63 80 -63q35 0 59 24t24 61q0 39 -24 61t-61 22t-63 -39l-94 43l90 190h120l-55 -113q12 6 35 7q68 0 115 -46q47 -48 47 -122z" />
    <glyph glyph-name="onesuperior" unicode="&#xb9;" horiz-adv-x="782" 
d="M485 1516v-910h-163v766h-177v144h340z" />
    <glyph glyph-name="ordmasculine" unicode="&#xba;" horiz-adv-x="837" 
d="M219 1208v-2q1 -82 59 -140t139 -58t140 58t59 143t-57 145t-139 59q-82 1 -142 -57t-59 -148zM82 1206v2q0 134 92 234t245 101t245 -99t92 -236t-96 -233q-96 -98 -243 -98q-146 0 -241 99q-94 99 -94 230z" />
    <glyph glyph-name="guillemotright" unicode="&#xbb;" horiz-adv-x="798" 
d="M207 956l215 -383l-215 -380h-164l215 380l-215 383h164zM514 956l215 -383l-215 -380h-164l217 380l-217 383h164z" />
    <glyph glyph-name="onequarter" unicode="&#xbc;" horiz-adv-x="1658" 
d="M1468 909v-614h97v-129h-97v-166h-165v166h-445v115l447 628h163zM434 1516v-910h-164v766h-176v144h340zM1305 295v403l-267 -403h267zM1178 1516l-654 -1516h-180l651 1516h183z" />
    <glyph glyph-name="onehalf" unicode="&#xbd;" horiz-adv-x="1728" 
d="M1634 143v-143h-635v131q217 201 332 309t115 197q0 63 -33 104t-103 41t-108 -53q-37 -53 -37 -135h-164q0 125 54 201q87 133 249 133t244 -72t82 -203q0 -78 -31 -137t-109 -134t-245 -239h389zM1178 1516l-654 -1516h-180l651 1516h183zM434 1516v-910h-164v766h-176
v144h340z" />
    <glyph glyph-name="threequarters" unicode="&#xbe;" horiz-adv-x="1869" 
d="M416 733q70 0 112 42q42 41 41 103q0 62 -42 107t-124 45h-86v125h52q67 0 109 37t42 83t-27 79q-28 33 -82 34t-83 -32t-31 -82h-168q2 96 55 158q54 62 114 82q60 19 120 20q116 0 192 -69t76 -167q0 -125 -117 -188q78 -29 125 -92t47 -141q0 -123 -95 -206t-234 -83
q-84 0 -159 33q-161 71 -169 264h170q4 -72 48 -112t114 -40zM1690 909v-614h96v-129h-96v-166h-166v166h-445v115l447 628h164zM1405 1516l-653 -1516h-181l652 1516h182zM1526 295v410l-273 -410h273z" />
    <glyph glyph-name="questiondown" unicode="&#xbf;" horiz-adv-x="1161" 
d="M582 -209q100 0 173 63t81 209h233v-45q-11 -208 -157 -328t-343 -120t-327 129t-131 303q0 82 40 162t79 123q40 43 116 112q96 91 125 157t31 138h225q-4 -110 -47 -198t-154 -195q-63 -63 -93 -97q-79 -90 -79 -184q0 -95 64 -162t164 -67zM504 848v266h223v-266h-223
z" />
    <glyph glyph-name="Agrave" unicode="&#xc0;" horiz-adv-x="1486" 
d="M500 1976l491 -272l-65 -131l-498 250zM999 553l-260 682l-256 -682h516zM418 358l-139 -358h-263l623 1516h219l612 -1516h-262l-143 358h-647z" />
    <glyph glyph-name="Aacute" unicode="&#xc1;" horiz-adv-x="1486" 
d="M498 1714l489 273l72 -156l-496 -250zM999 553l-260 682l-256 -682h516zM418 358l-139 -358h-263l623 1516h219l612 -1516h-262l-143 358h-647z" />
    <glyph glyph-name="Acircumflex" unicode="&#xc2;" horiz-adv-x="1486" 
d="M821 1915l346 -295h-221l-203 152l-200 -152h-224l353 295h149zM999 553l-260 682l-256 -682h516zM418 358l-139 -358h-263l623 1516h219l612 -1516h-262l-143 358h-647z" />
    <glyph glyph-name="Atilde" unicode="&#xc3;" horiz-adv-x="1486" 
d="M926 1663q-39 0 -181 33q-99 30 -173 30t-144 -55l-80 146q90 76 211 75q61 0 180 -30q87 -31 175 -31t147 53l80 -141q-96 -80 -215 -80zM999 553l-260 682l-256 -682h516zM418 358l-139 -358h-263l623 1516h219l612 -1516h-262l-143 358h-647z" />
    <glyph glyph-name="Adieresis" unicode="&#xc4;" horiz-adv-x="1486" 
d="M1055 1901v-277h-207v277h207zM639 1901v-277h-207v277h207zM999 553l-260 682l-256 -682h516zM418 358l-139 -358h-263l623 1516h219l612 -1516h-262l-143 358h-647z" />
    <glyph glyph-name="Aring" unicode="&#xc5;" horiz-adv-x="1486" 
d="M743 1898h-2q-43 0 -75 -32t-31 -77q0 -44 32 -75q33 -31 77 -31t76 31t32 76q0 44 -32 76t-77 32zM743 2013h2q92 1 159 -65t67 -159t-67 -160t-161 -67q-93 0 -159 68q-66 66 -66 159t66 159t159 65zM999 553l-260 682l-256 -682h516zM418 358l-139 -358h-263l623 1516
h219l612 -1516h-262l-143 358h-647z" />
    <glyph glyph-name="AE" unicode="&#xc6;" horiz-adv-x="1968" 
d="M1061 571v625l-424 -625h424zM1843 1516v-213h-547v-431h539v-210h-539v-449h547v-213h-782v383h-531l-260 -383h-288l1050 1516h811z" />
    <glyph glyph-name="Ccedilla" unicode="&#xc7;" horiz-adv-x="1660" 
d="M1044 -274q0 -74 -51 -130t-143 -57q-28 0 -60 6t-76 46t-55 110h111q20 -63 80 -63q38 0 60 24t22 62t-24 60t-60 22t-64 -39l-94 43l82 170q-301 35 -497 257t-195 523q0 209 98 387t282 288t410 109q146 0 274 -48t215 -124q173 -151 234 -325h-256q-51 100 -172 191
t-297 93q-236 0 -392 -168q-156 -167 -154 -405q0 -238 156 -406t392 -168q102 0 190 33t163 105q76 72 114 139h254q-72 -207 -263 -345t-441 -143l-43 -86q16 6 37 7q67 0 115 -46q48 -48 48 -122z" />
    <glyph glyph-name="Egrave" unicode="&#xc8;" horiz-adv-x="1099" 
d="M309 2003l492 -270l-64 -131l-497 247zM145 0v1516h848v-213h-606v-431h598v-210h-598v-449h606v-213h-848z" />
    <glyph glyph-name="Eacute" unicode="&#xc9;" horiz-adv-x="1099" 
d="M299 1741l489 272l72 -153l-495 -250zM145 0v1516h848v-213h-606v-431h598v-210h-598v-449h606v-213h-848z" />
    <glyph glyph-name="Ecircumflex" unicode="&#xca;" horiz-adv-x="1099" 
d="M627 1942l348 -295h-223l-201 151l-203 -151h-223l354 295h148zM145 0v1516h848v-213h-606v-431h598v-210h-598v-449h606v-213h-848z" />
    <glyph glyph-name="Edieresis" unicode="&#xcb;" horiz-adv-x="1099" 
d="M860 1929v-278h-207v278h207zM444 1929v-278h-206v278h206zM145 0v1516h848v-213h-606v-431h598v-210h-598v-449h606v-213h-848z" />
    <glyph glyph-name="Igrave" unicode="&#xcc;" horiz-adv-x="534" 
d="M-18 1999l489 -273l-63 -131l-498 250zM145 0v1516h242v-1516h-242z" />
    <glyph glyph-name="Iacute" unicode="&#xcd;" horiz-adv-x="534" 
d="M63 1737l490 272l72 -156l-496 -249zM145 0v1516h242v-1516h-242z" />
    <glyph glyph-name="Icircumflex" unicode="&#xce;" horiz-adv-x="534" 
d="M344 1933l348 -295h-223l-201 152l-202 -152h-224l355 295h147zM145 0v1516h242v-1516h-242z" />
    <glyph glyph-name="Idieresis" unicode="&#xcf;" horiz-adv-x="534" 
d="M578 1923v-276h-207v276h207zM162 1923v-276h-207v276h207zM145 0v1516h242v-1516h-242z" />
    <glyph glyph-name="Eth" unicode="&#xd0;" horiz-adv-x="1482" 
d="M387 1303v-426h352v-213h-352v-451h256q258 0 389 147q131 146 131 390t-123 393q-139 160 -395 160h-258zM145 877v639h476q420 0 616 -246q166 -200 166 -526t-196 -535t-554 -209h-508v664h-145v213h145z" />
    <glyph glyph-name="Ntilde" unicode="&#xd1;" horiz-adv-x="1536" 
d="M950 1659q-62 0 -170 32q-108 31 -184 31t-143 -57l-82 147q94 76 213 76q72 0 173 -31q226 -70 326 23l82 -143q-96 -78 -215 -78zM1389 1516v-1516h-222l-792 1155l4 -1155h-234v1516h228l786 -1154l-4 1154h234z" />
    <glyph glyph-name="Ograve" unicode="&#xd2;" horiz-adv-x="1742" 
d="M631 2003l491 -270l-63 -131l-498 247zM317 760v-2q0 -240 159 -407q158 -167 398 -167t395 171t155 401t-155 403q-155 172 -397 172q-242 1 -398 -167t-157 -404zM78 748v2q0 350 232 572t565 222t561 -228t229 -558q0 -330 -229 -558q-230 -228 -568 -228t-564 228
q-226 229 -226 548z" />
    <glyph glyph-name="Oacute" unicode="&#xd3;" horiz-adv-x="1742" 
d="M621 1741l489 272l72 -153l-496 -250zM317 760v-2q0 -240 159 -407q158 -167 398 -167t395 171t155 401t-155 403q-155 172 -397 172q-242 1 -398 -167t-157 -404zM78 748v2q0 350 232 572t565 222t561 -228t229 -558q0 -330 -229 -558q-230 -228 -568 -228t-564 228
q-226 229 -226 548z" />
    <glyph glyph-name="Ocircumflex" unicode="&#xd4;" horiz-adv-x="1742" 
d="M948 1937l348 -295h-223l-201 152l-202 -152h-224l355 295h147zM317 760v-2q0 -240 159 -407q158 -167 398 -167t395 171t155 401t-155 403q-155 172 -397 172q-242 1 -398 -167t-157 -404zM78 748v2q0 350 232 572t565 222t561 -228t229 -558q0 -330 -229 -558
q-230 -228 -568 -228t-564 228q-226 229 -226 548z" />
    <glyph glyph-name="Otilde" unicode="&#xd5;" horiz-adv-x="1742" 
d="M1053 1659q-57 0 -181 33q-98 30 -172 30t-145 -57l-80 147q94 76 211 76q70 0 173 -31t187 -31t142 54l80 -143q-94 -78 -215 -78zM317 760v-2q0 -240 159 -407q158 -167 398 -167t395 171t155 401t-155 403q-155 172 -397 172q-242 1 -398 -167t-157 -404zM78 748v2
q0 350 232 572t565 222t561 -228t229 -558q0 -330 -229 -558q-230 -228 -568 -228t-564 228q-226 229 -226 548z" />
    <glyph glyph-name="Odieresis" unicode="&#xd6;" horiz-adv-x="1742" 
d="M1182 1929v-278h-207v278h207zM766 1929v-278h-207v278h207zM317 760v-2q0 -240 159 -407q158 -167 398 -167t395 171t155 401t-155 403q-155 172 -397 172q-242 1 -398 -167t-157 -404zM78 748v2q0 350 232 572t565 222t561 -228t229 -558q0 -330 -229 -558
q-230 -228 -568 -228t-564 228q-226 229 -226 548z" />
    <glyph glyph-name="multiply" unicode="&#xd7;" horiz-adv-x="1228" 
d="M256 0l-147 147l358 359l-358 354l147 148l356 -357l361 357l147 -148l-358 -354l356 -359l-147 -147l-357 358z" />
    <glyph glyph-name="Oslash" unicode="&#xd8;" horiz-adv-x="1742" 
d="M872 184q242 0 397 171t155 397t-150 391l-653 -893q106 -66 251 -66zM317 758q0 -235 156 -387l653 893q-104 68 -254 67q-244 0 -400 -169t-155 -404zM1665 758q0 -330 -229 -558t-568 -229q-213 0 -381 97l-102 -136h-240l185 248q-108 92 -180 240t-72 338
q0 336 229 561t565 225q210 0 390 -100l102 139h240l-187 -252q104 -94 176 -240t72 -333z" />
    <glyph glyph-name="Ugrave" unicode="&#xd9;" horiz-adv-x="1343" 
d="M365 1989l491 -271l-63 -131l-498 248zM143 1516h242v-947q0 -111 14 -167t41 -97q76 -121 235 -121t228 117q49 75 55 171q2 34 3 97v947h239v-947q2 -163 -34 -275t-130 -190q-147 -133 -370 -133t-357 131q-102 92 -135 200t-31 267v947z" />
    <glyph glyph-name="Uacute" unicode="&#xda;" horiz-adv-x="1343" 
d="M461 1726l489 273l72 -154l-496 -250zM143 1516h242v-947q0 -111 14 -167t41 -97q76 -121 235 -121t228 117q49 75 55 171q2 34 3 97v947h239v-947q2 -163 -34 -275t-130 -190q-147 -133 -370 -133t-357 131q-102 92 -135 200t-31 267v947z" />
    <glyph glyph-name="Ucircumflex" unicode="&#xdb;" horiz-adv-x="1343" 
d="M750 1927l348 -295h-224l-202 152l-201 -152h-223l354 295h148zM143 1516h242v-947q0 -111 14 -167t41 -97q76 -121 235 -121t228 117q49 75 55 171q2 34 3 97v947h239v-947q2 -163 -34 -275t-130 -190q-147 -133 -370 -133t-357 131q-102 92 -135 200t-31 267v947z" />
    <glyph glyph-name="Udieresis" unicode="&#xdc;" horiz-adv-x="1343" 
d="M983 1915v-277h-207v277h207zM567 1915v-277h-207v277h207zM143 1516h242v-947q0 -111 14 -167t41 -97q76 -121 235 -121t228 117q49 75 55 171q2 34 3 97v947h239v-947q2 -163 -34 -275t-130 -190q-147 -133 -370 -133t-357 131q-102 92 -135 200t-31 267v947z" />
    <glyph glyph-name="Yacute" unicode="&#xdd;" horiz-adv-x="1239" 
d="M436 1726l490 273l71 -154l-495 -250zM500 0v539l-475 977h262l334 -750l333 750h263l-476 -977v-539h-241z" />
    <glyph glyph-name="Thorn" unicode="&#xde;" horiz-adv-x="1187" 
d="M588 516q344 0 344 268q0 74 -31 131t-80 86q-82 49 -241 50h-201v-535h209zM137 0v1516h242v-252h190q175 0 265 -23q201 -51 284 -241q45 -101 45 -211q0 -111 -44 -213q-45 -102 -119 -162t-161 -84q-87 -25 -247 -25h-213v-305h-242z" />
    <glyph glyph-name="germandbls" unicode="&#xdf;" horiz-adv-x="1296" 
d="M348 971v-559h129q10 -116 82 -180q71 -64 183 -65t189 74t77 189t-82 186t-271 74h-98v164h64q100 0 171 70q70 70 70 182t-70 178t-182 66q-147 0 -215 -121q-47 -86 -47 -258zM135 0v918q0 182 22 277t87 171q70 88 174 135t213 47q199 0 321 -121t123 -294
q0 -213 -182 -312q145 -27 236 -139t92 -254q1 -188 -139 -324t-351 -137q-145 2 -245 71q-99 69 -138 195v-233h-213z" />
    <glyph glyph-name="agrave" unicode="&#xe0;" horiz-adv-x="1415" 
d="M451 1638l491 -272l-63 -131l-498 250zM289 555v-2q2 -145 102 -266t287 -121q123 0 213 60t133 161q35 74 39 165t-33 167q-43 101 -135 165t-221 64q-170 0 -278 -115q-107 -116 -107 -278zM1274 1114v-1114h-213v195q-57 -111 -168 -169t-246 -59q-260 0 -416 173
q-155 173 -155 422t164 417t407 168q153 0 261 -69t153 -160v196h213z" />
    <glyph glyph-name="aacute" unicode="&#xe1;" horiz-adv-x="1415" 
d="M453 1374l489 275l72 -156l-496 -250zM289 555v-2q2 -145 102 -266t287 -121q123 0 213 60t133 161q35 74 39 165t-33 167q-43 101 -135 165t-221 64q-170 0 -278 -115q-107 -116 -107 -278zM1274 1114v-1114h-213v195q-57 -111 -168 -169t-246 -59q-260 0 -416 173
q-155 173 -155 422t164 417t407 168q153 0 261 -69t153 -160v196h213z" />
    <glyph glyph-name="acircumflex" unicode="&#xe2;" horiz-adv-x="1415" 
d="M768 1577l348 -295h-223l-201 152l-203 -152h-223l355 295h147zM289 555v-2q2 -145 102 -266t287 -121q123 0 213 60t133 161q35 74 39 165t-33 167q-43 101 -135 165t-221 64q-170 0 -278 -115q-107 -116 -107 -278zM1274 1114v-1114h-213v195q-57 -111 -168 -169
t-246 -59q-260 0 -416 173q-155 173 -155 422t164 417t407 168q153 0 261 -69t153 -160v196h213z" />
    <glyph glyph-name="atilde" unicode="&#xe3;" horiz-adv-x="1415" 
d="M879 1298q-61 0 -177 32t-165 32q-88 0 -156 -57l-80 145q92 78 211 78q70 0 175 -32t185 -32t140 56l82 -144q-96 -78 -215 -78zM289 555v-2q2 -145 102 -266t287 -121q123 0 213 60t133 161q35 74 39 165t-33 167q-43 101 -135 165t-221 64q-170 0 -278 -115
q-107 -116 -107 -278zM1274 1114v-1114h-213v195q-57 -111 -168 -169t-246 -59q-260 0 -416 173q-155 173 -155 422t164 417t407 168q153 0 261 -69t153 -160v196h213z" />
    <glyph glyph-name="adieresis" unicode="&#xe4;" horiz-adv-x="1415" 
d="M993 1563v-277h-207v277h207zM578 1563v-277h-207v277h207zM289 555v-2q2 -145 102 -266t287 -121q123 0 213 60t133 161q35 74 39 165t-33 167q-43 101 -135 165t-221 64q-170 0 -278 -115q-107 -116 -107 -278zM1274 1114v-1114h-213v195q-57 -111 -168 -169t-246 -59
q-260 0 -416 173q-155 173 -155 422t164 417t407 168q153 0 261 -69t153 -160v196h213z" />
    <glyph glyph-name="aring" unicode="&#xe5;" horiz-adv-x="1415" 
d="M676 1546h-2q-45 0 -76 -32t-31 -76t32 -76q32 -31 77 -31t77 31t31 76q0 44 -32 76t-76 32zM676 1663h2q92 0 159 -67q67 -68 67 -160t-68 -159q-66 -67 -160 -67t-161 67t-67 160t68 159q66 66 160 67zM289 555v-2q2 -145 102 -266t287 -121q123 0 213 60t133 161
q35 74 39 165t-33 167q-43 101 -135 165t-221 64q-170 0 -278 -115q-107 -116 -107 -278zM1274 1114v-1114h-213v195q-57 -111 -168 -169t-246 -59q-260 0 -416 173q-155 173 -155 422t164 417t407 168q153 0 261 -69t153 -160v196h213z" />
    <glyph glyph-name="ae" unicode="&#xe6;" horiz-adv-x="2291" 
d="M1626 965q-152 0 -258 -115q-71 -78 -96 -207h733q-33 160 -130 241t-249 81zM289 561v-2q-1 -169 111 -281t275 -112t273 116t111 276q0 160 -110 276q-109 114 -279 114t-276 -120t-105 -267zM1255 0h-196v211q-47 -109 -159 -177t-251 -67t-253 57q-203 101 -284 332
q-36 100 -36 199q0 252 164 422t413 170q139 1 247 -63t159 -173v203h196v-201q127 233 394 234q238 0 401 -170q187 -190 164 -481h-946q12 -129 83 -212t143 -109t144 -25q195 0 326 188h219q-72 -162 -208 -266t-320 -105q-135 0 -240 65q-104 65 -160 179v-211z" />
    <glyph glyph-name="ccedilla" unicode="&#xe7;" horiz-adv-x="1304" 
d="M846 -274q0 -74 -51 -130t-144 -57q-29 0 -61 6t-75 46q-44 40 -54 110h110q20 -63 80 -63q37 0 60 24t23 62t-24 60t-61 22t-63 -39l-94 43l77 167q-215 33 -354 195t-139 398t168 407q168 170 418 170q204 0 364 -117t211 -315h-219q-43 105 -137 167t-211 62
q-158 0 -270 -106t-112 -278t110 -284t256 -110t237 68q90 66 127 157h219q-51 -180 -199 -297t-352 -125l-41 -82q14 6 37 7q66 0 115 -46q49 -48 49 -122z" />
    <glyph glyph-name="egrave" unicode="&#xe8;" horiz-adv-x="1298" 
d="M410 1638l491 -272l-65 -131l-496 250zM281 655h737q-8 119 -114 215t-258 96q-153 0 -255 -96q-102 -94 -110 -215zM651 150q223 0 322 188h221q-78 -180 -221 -276t-322 -95q-262 0 -426 177t-164 416t169 413t416 174t415 -164q197 -201 168 -494h-953
q8 -159 122 -249t253 -90z" />
    <glyph glyph-name="eacute" unicode="&#xe9;" horiz-adv-x="1298" 
d="M395 1374l488 275l73 -156l-497 -250zM281 655h737q-8 119 -114 215t-258 96q-153 0 -255 -96q-102 -94 -110 -215zM651 150q223 0 322 188h221q-78 -180 -221 -276t-322 -95q-262 0 -426 177t-164 416t169 413t416 174t415 -164q197 -201 168 -494h-953q8 -159 122 -249
t253 -90z" />
    <glyph glyph-name="ecircumflex" unicode="&#xea;" horiz-adv-x="1298" 
d="M725 1577l348 -295h-221l-203 152l-200 -152h-224l353 295h147zM281 655h737q-8 119 -114 215t-258 96q-153 0 -255 -96q-102 -94 -110 -215zM651 150q223 0 322 188h221q-78 -180 -221 -276t-322 -95q-262 0 -426 177t-164 416t169 413t416 174t415 -164
q197 -201 168 -494h-953q8 -159 122 -249t253 -90z" />
    <glyph glyph-name="edieresis" unicode="&#xeb;" horiz-adv-x="1298" 
d="M956 1563v-277h-206v277h206zM541 1563v-277h-207v277h207zM281 655h737q-8 119 -114 215t-258 96q-153 0 -255 -96q-102 -94 -110 -215zM651 150q223 0 322 188h221q-78 -180 -221 -276t-322 -95q-262 0 -426 177t-164 416t169 413t416 174t415 -164q197 -201 168 -494
h-953q8 -159 122 -249t253 -90z" />
    <glyph glyph-name="igrave" unicode="&#xec;" horiz-adv-x="491" 
d="M-37 1638l492 -272l-64 -131l-497 250zM139 0v1114h213v-1114h-213z" />
    <glyph glyph-name="iacute" unicode="&#xed;" horiz-adv-x="491" 
d="M35 1374l489 275l72 -156l-496 -250zM139 0v1114h213v-1114h-213z" />
    <glyph glyph-name="icircumflex" unicode="&#xee;" horiz-adv-x="491" 
d="M324 1577l348 -295h-223l-201 152l-201 -152h-225l354 295h148zM139 0v1114h213v-1114h-213z" />
    <glyph glyph-name="idieresis" unicode="&#xef;" horiz-adv-x="491" 
d="M557 1563v-277h-207v277h207zM141 1563v-277h-204v277h204zM139 0v1114h213v-1114h-213z" />
    <glyph glyph-name="eth" unicode="&#xf0;" horiz-adv-x="1341" 
d="M289 559v-2q0 -161 105 -275q106 -114 278 -114t276 117t104 273t-106 272q-106 118 -276 118t-276 -113q-105 -114 -105 -276zM78 554q0 265 160 423t385 160q193 0 313 -131q-25 53 -70 100q-89 101 -198 158l-471 -134v148l307 86q-84 43 -260 104l223 66
q127 -43 262 -117l422 117v-148l-266 -73q180 -115 280 -299t101 -414q0 -279 -171 -454t-422 -176t-423 159t-172 425z" />
    <glyph glyph-name="ntilde" unicode="&#xf1;" horiz-adv-x="1302" 
d="M834 1298q-60 0 -176 32t-166 32q-88 0 -156 -57l-80 145q92 78 211 78q70 0 175 -32q106 -32 186 -32t141 56l80 -144q-96 -78 -215 -78zM952 604q0 346 -293 342q-155 -2 -231 -89t-76 -236v-621h-213v1114h201v-172q43 92 139 150q97 58 231 55q265 -4 362 -156
t95 -338v-653h-215v604z" />
    <glyph glyph-name="ograve" unicode="&#xf2;" horiz-adv-x="1341" 
d="M430 1638l492 -272l-64 -131l-498 250zM289 557v-2q1 -167 111 -277t270 -110t270 112t111 278q0 166 -111 277q-110 111 -270 111t-271 -111q-110 -112 -110 -278zM76 557v2q0 236 163 412t431 176t431 -176t163 -414t-163 -413t-431 -175t-431 175t-163 413z" />
    <glyph glyph-name="oacute" unicode="&#xf3;" horiz-adv-x="1341" 
d="M416 1374l489 275l72 -156l-496 -250zM289 557v-2q1 -167 111 -277t270 -110t270 112t111 278q0 166 -111 277q-110 111 -270 111t-271 -111q-110 -112 -110 -278zM76 557v2q0 236 163 412t431 176t431 -176t163 -414t-163 -413t-431 -175t-431 175t-163 413z" />
    <glyph glyph-name="ocircumflex" unicode="&#xf4;" horiz-adv-x="1341" 
d="M748 1577l348 -295h-224l-200 152l-201 -152h-225l354 295h148zM289 557v-2q1 -167 111 -277t270 -110t270 112t111 278q0 166 -111 277q-110 111 -270 111t-271 -111q-110 -112 -110 -278zM76 557v2q0 236 163 412t431 176t431 -176t163 -414t-163 -413t-431 -175
t-431 175t-163 413z" />
    <glyph glyph-name="otilde" unicode="&#xf5;" horiz-adv-x="1341" 
d="M852 1298q-59 0 -176 32t-164 32q-86 0 -158 -57l-80 145q92 78 211 78q73 0 179 -32t184 -32t139 56l80 -144q-94 -78 -215 -78zM289 557v-2q1 -167 111 -277t270 -110t270 112t111 278q0 166 -111 277q-110 111 -270 111t-271 -111q-110 -112 -110 -278zM76 557v2
q0 236 163 412t431 176t431 -176t163 -414t-163 -413t-431 -175t-431 175t-163 413z" />
    <glyph glyph-name="odieresis" unicode="&#xf6;" horiz-adv-x="1341" 
d="M981 1563v-277h-205v277h205zM565 1563v-277h-205v277h205zM289 557v-2q1 -167 111 -277t270 -110t270 112t111 278q0 166 -111 277q-110 111 -270 111t-271 -111q-110 -112 -110 -278zM76 557v2q0 236 163 412t431 176t431 -176t163 -414t-163 -413t-431 -175t-431 175
t-163 413z" />
    <glyph glyph-name="divide" unicode="&#xf7;" horiz-adv-x="1228" 
d="M717 190v-253h-205v253h205zM100 412v206h1028v-206h-1028zM717 1096v-256h-205v256h205z" />
    <glyph glyph-name="oslash" unicode="&#xf8;" horiz-adv-x="1341" 
d="M670 166q168 0 274 114t106 272t-96 251l-438 -596q72 -41 154 -41zM672 946q-164 0 -274 -112t-110 -273q0 -162 99 -254l440 600q-68 39 -155 39zM1264 561q0 -244 -163 -419t-429 -175q-160 0 -279 68l-76 -105h-217l150 203q-174 164 -174 413t163 425t433 176
q166 0 276 -68l74 105h217l-149 -205q174 -174 174 -418z" />
    <glyph glyph-name="ugrave" unicode="&#xf9;" horiz-adv-x="1304" 
d="M346 1638l492 -272l-66 -131l-498 250zM1165 1114v-1114h-200v172q-43 -92 -139 -149t-232 -57q-262 1 -367 163q-90 142 -90 332v653h213v-604q0 -344 297 -344q152 2 229 89t76 237v622h213z" />
    <glyph glyph-name="uacute" unicode="&#xfa;" horiz-adv-x="1304" 
d="M442 1374l488 275l74 -156l-498 -250zM1165 1114v-1114h-200v172q-43 -92 -139 -149t-232 -57q-262 1 -367 163q-90 142 -90 332v653h213v-604q0 -344 297 -344q152 2 229 89t76 237v622h213z" />
    <glyph glyph-name="ucircumflex" unicode="&#xfb;" horiz-adv-x="1304" 
d="M729 1577l348 -295h-223l-201 152l-200 -152h-226l355 295h147zM1165 1114v-1114h-200v172q-43 -92 -139 -149t-232 -57q-262 1 -367 163q-90 142 -90 332v653h213v-604q0 -344 297 -344q152 2 229 89t76 237v622h213z" />
    <glyph glyph-name="udieresis" unicode="&#xfc;" horiz-adv-x="1304" 
d="M963 1563v-277h-205v277h205zM547 1563v-277h-205v277h205zM1165 1114v-1114h-200v172q-43 -92 -139 -149t-232 -57q-262 1 -367 163q-90 142 -90 332v653h213v-604q0 -344 297 -344q152 2 229 89t76 237v622h213z" />
    <glyph glyph-name="yacute" unicode="&#xfd;" horiz-adv-x="1089" 
d="M362 1374l488 275l74 -156l-498 -250zM252 -406l184 439l-426 1081h230l307 -815l311 815h229l-608 -1520h-227z" />
    <glyph glyph-name="thorn" unicode="&#xfe;" horiz-adv-x="1411" 
d="M1122 557v2q0 160 -108 274q-109 113 -279 113q-169 0 -281 -116t-112 -270t109 -273q115 -121 283 -121t278 114t110 277zM139 -406v1922h213v-588q63 109 177 164t244 55t241 -52q204 -96 284 -328q37 -105 37 -216q-1 -248 -161 -416t-402 -168q-152 -1 -260 63
t-160 154v-590h-213z" />
    <glyph glyph-name="ydieresis" unicode="&#xff;" horiz-adv-x="1089" 
d="M856 1563v-277h-207v277h207zM440 1563v-277h-207v277h207zM252 -406l184 439l-426 1081h230l307 -815l311 815h229l-608 -1520h-227z" />
    <glyph glyph-name="dotlessi" unicode="&#x131;" horiz-adv-x="491" 
d="M139 0v1114h213v-1114h-213z" />
    <glyph glyph-name="Lslash" unicode="&#x141;" horiz-adv-x="937" 
d="M156 1516h241v-553l267 192v-244l-267 -196v-502h535v-213h-776v545l-148 -109v244l148 108v728z" />
    <glyph glyph-name="lslash" unicode="&#x142;" horiz-adv-x="587" 
d="M184 1516h213v-553l164 112v-219l-164 -115v-741h-213v606l-141 -98v223l141 96v689z" />
    <glyph glyph-name="OE" unicode="&#x152;" horiz-adv-x="2308" 
d="M317 756v-2q0 -226 151 -398q150 -172 394 -172t396 170t151 410q-2 240 -155 404q-152 164 -392 163q-240 1 -392 -167t-153 -408zM1647 1303v-431h538v-210h-538v-449h548v-213h-782v266q-93 -141 -241 -218t-312 -77q-332 1 -557 227t-225 556t220 560t564 230
q201 0 344 -84t207 -211v267h782v-213h-548z" />
    <glyph glyph-name="oe" unicode="&#x153;" horiz-adv-x="2277" 
d="M1262 645h725q-15 121 -113 218t-244 97t-248 -88t-120 -227zM289 557v-2q1 -165 111 -277t274 -112t269 120t105 270t-106 272q-106 120 -267 120t-274 -109q-112 -110 -112 -282zM1602 150q250 0 342 188h221q-72 -162 -189 -252q-158 -119 -346 -119t-308 85t-173 202
q-61 -131 -186 -209t-304 -78t-318 93q-137 92 -201 224t-64 271q0 246 167 419t431 173q158 0 287 -80t188 -205q51 106 174 194t299 87q246 0 414 -174q92 -94 136 -219t28 -252h-947q9 -162 115 -255t234 -93z" />
    <glyph glyph-name="Scaron" unicode="&#x160;" horiz-adv-x="1122" 
d="M137 1921h223l201 -152l201 152h223l-350 -295h-150zM742 247q75 71 75 176t-85 162q-66 45 -212 97l-21 7q-9 3 -41 13t-67 24t-96 50q-61 35 -99 75q-38 39 -69 107t-31 150q-2 200 142 318t319 118q176 0 309 -91q68 -46 113 -131t51 -196h-237q-31 151 -122 193
q-44 20 -122 20t-146 -59t-67 -154q0 -53 17 -89q30 -63 174 -121t165 -64q151 -63 258 -155t107 -277t-129 -317q-130 -132 -358 -132q-228 -1 -363 129t-137 349h239q12 -160 106 -223q75 -50 163 -50t164 71z" />
    <glyph glyph-name="scaron" unicode="&#x161;" horiz-adv-x="954" 
d="M53 1565h223l201 -152l201 152h223l-350 -295h-150zM631 823q0 68 -42 110t-119 41t-120 -43q-43 -43 -41 -103q4 -108 186 -156q182 -49 219 -72q93 -61 113 -98q43 -80 47 -170q2 -160 -112 -262t-285 -103q-214 0 -335 152q-67 84 -70 203h211q6 -92 65 -136t134 -45
q75 0 127 48q51 48 51 122t-60 115t-208 88t-221 113t-75 182q0 154 109 246t251 92t251 -68q55 -35 92 -101t43 -155h-211z" />
    <glyph glyph-name="Ydieresis" unicode="&#x178;" horiz-adv-x="1239" 
d="M930 1915v-277h-205v277h205zM514 1915v-277h-205v277h205zM500 0v539l-475 977h262l334 -750l333 750h263l-476 -977v-539h-241z" />
    <glyph glyph-name="Zcaron" unicode="&#x17d;" horiz-adv-x="1021" 
d="M82 1909h223l203 -152l201 152h223l-352 -293h-150zM997 213v-213h-960v156l670 1147h-682v213h954v-189l-649 -1114h667z" />
    <glyph glyph-name="zcaron" unicode="&#x17e;" horiz-adv-x="874" 
d="M31 1559h223l201 -152l200 152h224l-351 -293h-149zM29 0v152l565 796h-549v166h784v-168l-546 -780h563v-166h-817z" />
    <glyph glyph-name="florin" unicode="&#x192;" 
d="M1004 1057v-166h-240l-148 -813q-41 -238 -118 -340q-125 -164 -361 -164q-72 0 -117 14l35 195q49 -12 97 -12q48 -1 97 21q50 22 78 67t40 85t24 103l152 844h-213v166h241q39 264 156 376t291 111q37 0 74 -6l-31 -174q-132 0 -189 -72q-50 -55 -79 -235h211z" />
    <glyph glyph-name="circumflex" unicode="&#x2c6;" horiz-adv-x="1136" 
d="M645 1577l348 -295h-223l-201 152l-202 -152h-224l355 295h147z" />
    <glyph glyph-name="caron" unicode="&#x2c7;" horiz-adv-x="1136" 
d="M143 1565h224l200 -152l203 152h223l-352 -295h-149z" />
    <glyph glyph-name="uni02C9" unicode="&#x2c9;" horiz-adv-x="1136" 
d="M934 1505v-170h-733v170h733z" />
    <glyph glyph-name="breve" unicode="&#x2d8;" horiz-adv-x="1136" 
d="M575 1286q-158 0 -271 64t-144 184h174q39 -45 91 -67t148 -21q172 0 230 88h174q-20 -112 -132 -180t-270 -68z" />
    <glyph glyph-name="dotaccent" unicode="&#x2d9;" horiz-adv-x="1136" 
d="M672 1563v-277h-207v277h207z" />
    <glyph glyph-name="ring" unicode="&#x2da;" horiz-adv-x="1136" 
d="M567 1546h-2q-45 0 -76 -32t-31 -76t32 -76q32 -31 77 -31t77 31t32 76q0 44 -32 76t-77 32zM567 1663h2q92 0 159 -67q67 -68 67 -160t-67 -159t-161 -67q-93 0 -159 67t-66 160t66 159t159 67z" />
    <glyph glyph-name="ogonek" unicode="&#x2db;" horiz-adv-x="1136" 
d="M647 -293q43 0 111 25v-123q-84 -31 -170 -31t-148 56q-61 56 -61 134t43 128q43 49 131 104h121q-29 -19 -39 -27t-35 -27q-70 -52 -70 -126q0 -43 37 -78t80 -35z" />
    <glyph glyph-name="tilde" unicode="&#x2dc;" horiz-adv-x="1136" 
d="M750 1298q-56 0 -174 32t-185 32t-139 -57l-80 145q92 78 211 78q70 0 177 -32q108 -32 186 -32t139 56l80 -144q-94 -78 -215 -78z" />
    <glyph glyph-name="hungarumlaut" unicode="&#x2dd;" horiz-adv-x="1136" 
d="M594 1352l340 299l123 -127l-357 -283zM195 1352l340 299l120 -127l-354 -283z" />
    <glyph glyph-name="uni03A9" unicode="&#x3a9;" horiz-adv-x="1548" 
d="M403 178v6q-121 111 -199 276q-79 165 -79 367q0 305 185 509t470 204q192 0 342 -103t224 -261t74 -352t-83 -365q-82 -172 -200 -275v-6h313v-178h-545v131q125 82 210 252t85 412q0 143 -46 269t-145 210t-231 84q-194 0 -314 -162t-120 -400t87 -413
q87 -176 210 -252v-131h-547v178h309z" />
    <glyph glyph-name="uni03BC" unicode="&#x3bc;" horiz-adv-x="1230" 
d="M131 -381v1495h213v-586q0 -178 57 -260q74 -102 211 -102t209 110q72 104 72 297v541h213v-1114h-205v186q-89 -209 -281 -209t-276 144v-502h-213z" />
    <glyph glyph-name="pi" unicode="&#x3c0;" horiz-adv-x="1269" 
d="M1051 948v-626q0 -203 30 -322h-211q-37 68 -36 307v641h-349q-8 -219 -51 -509t-98 -439h-211q57 176 99 459t46 489q-147 0 -227 -24l-29 143q92 66 334 66h885l-19 -185h-163z" />
    <glyph glyph-name="uni2010" unicode="&#x2010;" horiz-adv-x="561" 
d="M0 686h561v-211h-561v211z" />
    <glyph glyph-name="endash" unicode="&#x2013;" horiz-adv-x="1024" 
d="M72 686h880v-211h-880v211z" />
    <glyph glyph-name="emdash" unicode="&#x2014;" horiz-adv-x="2048" 
d="M72 686h1904v-211h-1904v211z" />
    <glyph glyph-name="quoteleft" unicode="&#x2018;" horiz-adv-x="608" 
d="M371 1516l153 -424h-166l-178 424h191z" />
    <glyph glyph-name="quoteright" unicode="&#x2019;" horiz-adv-x="608" 
d="M84 1092l154 424h192l-180 -424h-166z" />
    <glyph glyph-name="quotesinglbase" unicode="&#x201a;" horiz-adv-x="608" 
d="M84 -182l154 424h192l-180 -424h-166z" />
    <glyph glyph-name="quotedblleft" unicode="&#x201c;" horiz-adv-x="966" 
d="M705 1516l153 -424h-166l-178 424h191zM414 1516l153 -424h-166l-178 424h191z" />
    <glyph glyph-name="quotedblright" unicode="&#x201d;" horiz-adv-x="966" 
d="M399 1092l154 424h190l-178 -424h-166zM109 1092l153 424h191l-179 -424h-165z" />
    <glyph glyph-name="quotedblbase" unicode="&#x201e;" horiz-adv-x="966" 
d="M399 -182l154 424h190l-178 -424h-166zM109 -182l153 424h191l-179 -424h-165z" />
    <glyph glyph-name="dagger" unicode="&#x2020;" horiz-adv-x="1284" 
d="M750 1516v-398h348v-184h-348v-1301h-215v1301h-349v184h349v398h215z" />
    <glyph glyph-name="daggerdbl" unicode="&#x2021;" horiz-adv-x="1284" 
d="M750 1516v-336h348v-187h-348v-743h348v-187h-348v-430h-213v430h-351v187h351v743h-351v187h351v336h213z" />
    <glyph glyph-name="bullet" unicode="&#x2022;" horiz-adv-x="1179" 
d="M592 1022h2q102 0 175 -75t73 -179t-74 -178t-178 -74t-178 74t-74 178t72 179t182 75z" />
    <glyph glyph-name="ellipsis" unicode="&#x2026;" horiz-adv-x="2048" 
d="M1595 0v268h224v-268h-224zM913 0v268h224v-268h-224zM231 0v268h224v-268h-224z" />
    <glyph glyph-name="perthousand" unicode="&#x2030;" horiz-adv-x="2420" 
d="M1272 1516l-766 -1516h-160l766 1516h160zM1806 326v-2q0 -86 58 -146t146 -59q87 0 144 58q58 57 58 147t-58 148t-145 58t-145 -58t-58 -146zM1657 326v2q0 148 101 250t251 102t252 -102t102 -252t-103 -252q-102 -102 -250 -102t-250 100q-102 102 -103 254z
M1012 326v-2q0 -86 57 -146t144 -59q87 0 145 59q57 60 57 148t-57 146q-56 58 -144 58t-145 -58t-57 -146zM860 326v2q0 148 102 250t251 102t251 -102t102 -252t-102 -252t-251 -102t-251 100q-102 102 -102 254zM211 1190v-2q0 -86 57 -144q58 -58 144 -59q86 0 144 59
q58 60 58 148t-57 146t-145 58t-144 -58t-57 -148zM59 1190v2q-1 148 101 250t252 102t252 -102t102 -252t-102 -251t-250 -101t-252 101q-103 101 -103 251z" />
    <glyph glyph-name="guilsinglleft" unicode="&#x2039;" horiz-adv-x="479" 
d="M55 573l215 383h164l-215 -383l215 -380h-164z" />
    <glyph glyph-name="guilsinglright" unicode="&#x203a;" horiz-adv-x="479" 
d="M209 956l215 -383l-215 -380h-164l215 380l-215 383h164z" />
    <glyph glyph-name="fraction" unicode="&#x2044;" horiz-adv-x="317" 
d="M-260 0l653 1516h182l-653 -1516h-182z" />
    <glyph glyph-name="Euro" unicode="&#x20ac;" horiz-adv-x="1136" 
d="M670 1548q90 0 165 -28t121 -72q126 -119 152 -311h-199q-19 104 -83 160q-64 57 -168 57q-205 1 -250 -363h491l-29 -155h-475v-134h453l-29 -155h-411q41 -381 268 -381q141 0 197 109q26 50 38 128h203q-16 -229 -140 -330t-312 -102q-414 0 -476 576h-184l29 155h145
v58l2 76h-176l29 155h157q66 557 482 557z" />
    <glyph glyph-name="afii61289" unicode="&#x2113;" horiz-adv-x="1081" 
d="M440 1141v-412q295 332 295 574q0 207 -137 206q-62 1 -110 -87t-48 -281zM231 1130q1 274 103 406t250 131q148 0 222 -103q73 -103 73 -266q0 -350 -439 -774v-82q2 -143 62 -216q60 -72 152 -72q91 0 165 59t123 145l94 -90q-150 -289 -426 -288q-178 0 -270 108
t-104 272q0 16 -3 25q-20 -14 -59 -47t-57 -47l-60 121q147 123 174 149v569z" />
    <glyph glyph-name="trademark" unicode="&#x2122;" horiz-adv-x="2027" 
d="M248 606v768h-215v142h600v-142h-217v-768h-168zM756 606v910h213l293 -682l288 682h213v-910h-157v713l-291 -713h-111l-291 709v-709h-157z" />
    <glyph glyph-name="Omega" unicode="&#x2126;" horiz-adv-x="1548" 
d="M403 178v6q-121 111 -199 276q-79 165 -79 367q0 305 185 509t470 204q192 0 342 -103t224 -261t74 -352t-83 -365q-82 -172 -200 -275v-6h313v-178h-545v131q125 82 210 252t85 412q0 143 -46 269t-145 210t-231 84q-194 0 -314 -162t-120 -400t87 -413
q87 -176 210 -252v-131h-547v178h309z" />
    <glyph glyph-name="estimated" unicode="&#x212e;" horiz-adv-x="1896" 
d="M1499 793v430q0 31 -20 51q-227 223 -531 223t-532 -231q-20 -20 -21 -54v-419q0 -14 11 -15h1085q8 1 8 15zM1821 735h-1415q-10 0 -11 -8v-428q0 -29 19 -49q227 -233 534 -234q166 0 312 70t251 190h125q-119 -139 -301 -221t-389 -82q-360 -1 -616 229t-256 556
t256 556t617 230t617 -230t257 -556v-23z" />
    <glyph glyph-name="partialdiff" unicode="&#x2202;" horiz-adv-x="1214" 
d="M541 162h2q131 0 218 150t109 352q-24 76 -100 144t-188 66q-112 0 -196 -116q-85 -116 -85 -264q0 -150 67 -241t173 -91zM546 1704q230 0 394 -215q166 -215 166 -613t-154 -646t-432 -248q-206 0 -320 154t-114 351q0 250 135 406t330 156q125 -1 215 -63t125 -128h2
q2 20 2 84q0 248 -111 415q-112 167 -276 167t-285 -105l-67 162q160 123 390 123z" />
    <glyph glyph-name="uni2206" unicode="&#x2206;" horiz-adv-x="1413" 
d="M285 176h831l-276 737q-14 51 -66 197t-67 201h-9q-10 -45 -58 -183t-62 -182zM63 0v135l521 1417h256l510 -1415v-137h-1287z" />
    <glyph glyph-name="product" unicode="&#x220f;" horiz-adv-x="1538" 
d="M1483 1319h-230v-1528h-215v1528h-540v-1528h-213v1528h-230v197h1428v-197z" />
    <glyph glyph-name="summation" unicode="&#x2211;" horiz-adv-x="1204" 
d="M1159 -209h-1110v141l555 719l-532 713v152h1052v-187h-757v-6l483 -637l-528 -686v-6h837v-203z" />
    <glyph glyph-name="minus" unicode="&#x2212;" horiz-adv-x="1228" 
d="M100 412v206h1028v-206h-1028z" />
    <glyph glyph-name="uni2215" unicode="&#x2215;" horiz-adv-x="317" 
d="M-260 0l653 1516h182l-653 -1516h-182z" />
    <glyph glyph-name="uni2219" unicode="&#x2219;" horiz-adv-x="608" 
d="M418 653v-266h-223v266h223z" />
    <glyph glyph-name="radical" unicode="&#x221a;" horiz-adv-x="1261" 
d="M1270 1810l-484 -2123h-180l-336 979l-159 -64l-39 127l331 131l250 -751q13 -68 41 -170l4 -2q6 53 31 178l387 1695h154z" />
    <glyph glyph-name="infinity" unicode="&#x221e;" horiz-adv-x="1687" 
d="M1239 852h-2q-84 0 -149 -55q-66 -55 -113 -109q-47 -53 -57 -63q111 -129 179 -181q69 -51 155 -51t141 69q55 68 55 164t-58 161q-59 65 -151 65zM457 393h2q101 0 204 99t113 120q-130 165 -179 193q-87 47 -151 47q-96 0 -152 -68t-56 -165t62 -161t157 -65z
M1577 629v-2q0 -162 -100 -261t-238 -100q-98 0 -190 60t-203 194q-106 -126 -196 -190t-219 -64q-128 0 -226 100q-99 100 -99 254t100 254t251 101q113 0 206 -66t189 -184q119 129 172 170q108 80 240 79t222 -96t91 -249z" />
    <glyph glyph-name="integral" unicode="&#x222b;" horiz-adv-x="815" 
d="M171 -195q157 1 157 365q0 228 -16 588q-16 362 -15 542q0 180 29 291t94 181q88 90 227 90q76 0 125 -27l-27 -149q-41 20 -77 20q-70 0 -111 -53q-66 -84 -65 -377q0 -170 15 -524t15 -543q0 -297 -86 -436q-76 -135 -246 -135q-88 0 -153 36l31 156q49 -25 103 -25z
" />
    <glyph glyph-name="approxequal" unicode="&#x2248;" 
d="M825 283q-59 0 -109 19t-138 69q-121 75 -192 75t-116 -40t-96 -121l-84 73q51 98 132 156t171 59q90 0 162 -41q46 -23 66 -35t51 -29q31 -18 41 -24q51 -33 115 -32q64 0 108 38t96 119l80 -73q-111 -213 -287 -213zM827 668q-61 0 -112 19t-157 82t-164 63
q-93 -1 -163 -80q-25 -29 -57 -80l-84 73q51 97 132 155t169 58t155 -36t82 -45t47 -26t42 -23q57 -31 121 -31q99 0 194 159l80 -73q-109 -215 -285 -215z" />
    <glyph glyph-name="notequal" unicode="&#x2260;" 
d="M1098 899v-131h-369l-137 -305h506v-131h-557l-113 -252l-104 45l94 207h-312v131h363l137 305h-500v131h551l111 248l102 -45l-90 -203h318z" />
    <glyph glyph-name="lessequal" unicode="&#x2264;" 
d="M1100 -6h-991v133h991v-133zM1094 211l-975 487v142l973 485v-156l-838 -397v-4l840 -401v-156z" />
    <glyph glyph-name="greaterequal" unicode="&#x2265;" 
d="M1098 -6h-987v133h987v-133zM123 1325l973 -487v-140l-973 -487v156l838 399v4l-838 399v156z" />
    <glyph glyph-name="lozenge" unicode="&#x25ca;" horiz-adv-x="1261" 
d="M954 752l-280 565q-31 78 -41 121h-6q-12 -59 -41 -121l-279 -555l281 -572q27 -61 39 -116h8q14 66 37 114zM1147 756l-434 -858h-174l-424 858l432 860h174z" />
    <glyph glyph-name="fi" unicode="&#xfb01;" horiz-adv-x="1040" 
d="M901 1290h-213v226h213v-226zM688 948h-313v-948h-213v948h-152v166h152v76q0 96 29 165q30 69 70 105t105 56q64 20 108 24t106 4v-168q-116 0 -161 -48q-44 -48 -44 -148v-66h526v-1114h-213v948z" />
    <glyph glyph-name="fl" unicode="&#xfb02;" horiz-adv-x="1040" 
d="M688 948h-313v-948h-213v948h-152v166h152v76q0 96 29 165q30 69 70 105t105 56q64 20 108 24t106 4v-168q-116 0 -161 -48q-44 -48 -44 -148v-66h313v399h213v-1513h-213v948z" />
    <glyph glyph-name="a.superior" horiz-adv-x="837" 
d="M193 1206v-2q0 -72 55 -134t151 -62q129 0 185 110q20 41 20 90t-20 95t-71 78q-50 32 -126 32q-76 1 -135 -59t-59 -148zM741 1524v-629h-137v111q-64 -129 -214 -129t-243 98q-92 98 -92 239q-1 142 95 236t240 94t214 -131v111h137z" />
    <glyph glyph-name="o.superior" horiz-adv-x="837" 
d="M219 1208v-2q1 -82 59 -140t139 -58t140 58t59 143t-57 145t-139 59q-82 1 -142 -57t-59 -148zM82 1206v2q0 134 92 234t245 101t245 -99t92 -236t-96 -233q-96 -98 -243 -98q-146 0 -241 99q-94 99 -94 230z" />
    <glyph glyph-name="one.superior" horiz-adv-x="782" 
d="M485 1516v-910h-163v766h-177v144h340z" />
    <glyph glyph-name="two.superior" horiz-adv-x="782" 
d="M707 750v-144h-635v131q218 201 332 309t114 197q0 63 -33 105t-103 41q-70 1 -108 -53q-37 -54 -36 -136h-164q0 129 59 209q89 125 247 125t240 -72t82 -202q0 -78 -30 -138t-109 -134q-78 -75 -246 -238h390z" />
    <glyph glyph-name="three.superior" horiz-adv-x="782" 
d="M388 733q69 0 111 42q42 41 42 103t-41 107t-123 45h-88v125h53q68 0 110 37t42 83t-29 79t-83 34t-82 -32t-32 -82h-168q4 136 96 198t202 62q108 0 185 -69t76 -167q0 -123 -116 -188q78 -29 125 -92t47 -141q-1 -123 -97 -206t-235 -83q-82 0 -157 33
q-164 72 -171 264h172q4 -72 48 -112t113 -40z" />
    </font>
</defs>
</svg>
